{"glyphs":{"0":{"ha":868,"x_min":0,"x_max":0,"o":"m 369 -14 b 105 505 146 -14 51 175 b 541 1024 158 833 320 1024 b 807 505 762 1024 862 832 b 369 -14 752 176 592 -14 m 387 95 b 689 505 535 95 645 243 b 523 917 732 767 669 917 b 223 505 377 917 266 767 b 387 95 180 243 241 95 "},"1":{"ha":645,"x_min":0,"x_max":0,"o":"m 397 0 l 274 0 l 420 882 l 414 882 l 140 718 l 162 842 l 442 1010 l 564 1010 "},"2":{"ha":840,"x_min":0,"x_max":0,"o":"m 57 89 l 450 454 b 671 744 588 582 655 651 b 509 917 689 850 619 917 b 282 726 393 917 302 840 l 166 726 b 531 1024 195 904 353 1024 b 785 744 708 1024 811 900 b 495 359 765 631 699 545 l 229 116 l 227 109 l 696 109 l 679 0 l 41 0 "},"3":{"ha":884,"x_min":0,"x_max":0,"o":"m 387 -14 b 83 253 189 -14 62 93 l 205 253 b 389 95 196 156 269 95 b 649 282 516 95 631 164 b 444 464 665 387 598 464 l 361 464 l 379 572 l 456 572 b 692 756 576 572 674 644 b 543 917 709 853 654 917 b 306 758 436 917 325 858 l 187 758 b 548 1024 218 915 377 1024 b 809 746 738 1024 833 892 b 606 523 791 635 712 555 l 606 517 b 767 266 730 495 789 394 b 387 -14 739 94 585 -14 "},"4":{"ha":892,"x_min":0,"x_max":0,"o":"m 69 308 l 629 1010 l 777 1010 l 662 316 l 801 316 l 783 207 l 644 207 l 610 0 l 493 0 l 527 207 l 53 207 m 635 854 l 627 854 l 203 324 l 203 316 l 546 316 "},"5":{"ha":844,"x_min":0,"x_max":0,"o":"m 355 -14 b 85 253 182 -14 67 99 l 203 253 b 373 95 197 162 270 95 b 625 320 497 95 604 189 b 440 550 647 452 570 550 b 256 499 379 550 304 529 l 144 513 l 288 1010 l 813 1010 l 795 902 l 373 902 l 288 604 l 294 604 b 479 661 341 637 410 661 b 744 322 665 661 777 517 b 355 -14 712 128 548 -14 "},"6":{"ha":866,"x_min":0,"x_max":0,"o":"m 383 -14 b 105 473 213 -12 41 97 b 556 1024 164 827 331 1024 b 831 758 724 1024 833 915 l 714 758 b 552 915 711 850 660 915 b 227 523 396 915 270 779 l 235 531 b 499 661 304 614 397 661 b 767 318 677 661 801 517 b 383 -14 736 134 583 -16 m 387 95 b 651 333 513 95 629 201 b 479 552 671 454 600 552 b 211 316 351 552 231 440 b 387 95 191 199 262 95 "},"7":{"ha":793,"x_min":0,"x_max":0,"o":"m 673 894 l 675 902 l 154 902 l 172 1010 l 819 1010 l 799 896 l 201 0 l 73 0 "},"8":{"ha":856,"x_min":0,"x_max":0,"o":"m 371 -14 b 67 276 163 -14 39 111 b 300 525 88 400 187 505 l 300 529 b 185 763 207 554 164 653 b 527 1024 215 916 353 1024 b 795 748 706 1024 822 906 b 596 529 776 635 692 552 l 596 525 b 752 260 702 503 774 391 b 371 -14 725 99 568 -14 m 375 95 b 635 282 517 95 618 170 b 450 470 653 395 574 470 b 187 266 318 470 206 385 b 375 95 171 160 241 95 m 454 574 b 679 756 569 574 660 649 b 525 917 697 858 635 917 b 300 740 405 917 317 846 b 454 574 283 636 349 574 "},"9":{"ha":866,"x_min":0,"x_max":0,"o":"m 527 1024 b 805 539 696 1022 868 915 b 353 -14 746 183 578 -14 b 79 254 185 -14 77 95 l 195 254 b 357 95 199 160 249 95 b 683 489 513 95 639 231 l 675 481 b 410 351 606 399 513 351 b 142 694 233 351 109 495 b 527 1024 174 878 326 1026 m 523 915 b 258 679 397 915 280 811 b 430 460 239 558 310 460 b 698 696 558 460 679 572 b 523 915 718 813 647 915 "},"A":{"ha":939,"x_min":0,"x_max":0,"o":"m -28 0 l 511 1010 l 637 1010 l 840 0 l 712 0 l 658 286 l 250 286 l 101 0 m 638 395 l 552 850 l 545 850 l 307 395 "},"Ä":{"ha":939,"x_min":0,"x_max":0,"o":"m -28 0 l 511 1010 l 637 1010 l 840 0 l 712 0 l 658 286 l 250 286 l 101 0 m 638 395 l 552 850 l 545 850 l 307 395 m 745 1136 b 674 1223 701 1136 666 1176 b 757 1294 681 1265 719 1294 b 830 1207 806 1294 837 1257 b 745 1136 824 1170 788 1136 m 461 1136 b 390 1223 417 1136 383 1178 b 472 1294 396 1265 435 1294 b 545 1207 522 1294 553 1257 b 461 1136 540 1170 504 1136 "},"B":{"ha":904,"x_min":0,"x_max":0,"o":"m 227 1010 l 580 1010 b 844 742 791 1010 870 890 b 647 531 823 612 736 554 l 645 521 b 807 268 736 515 833 428 b 424 0 781 116 663 0 l 59 0 m 442 109 b 690 268 602 109 675 180 b 507 460 706 371 639 460 l 258 460 l 199 109 m 503 566 b 728 742 614 566 712 635 b 562 902 744 831 696 902 l 331 902 l 276 566 "},"C":{"ha":1010,"x_min":0,"x_max":0,"o":"m 866 694 b 623 909 860 835 754 909 b 221 497 436 909 264 763 b 475 101 178 239 296 101 b 803 316 614 101 750 176 l 925 316 b 472 -14 852 109 671 -14 b 105 513 209 -14 51 189 b 629 1024 158 829 373 1024 b 986 694 835 1024 982 902 "},"D":{"ha":998,"x_min":0,"x_max":0,"o":"m 59 0 l 227 1010 l 548 1010 b 935 499 842 1010 988 817 b 375 0 884 187 683 0 m 379 109 b 819 515 629 109 777 264 b 531 902 860 756 767 902 l 331 902 l 200 109 "},"E":{"ha":831,"x_min":0,"x_max":0,"o":"m 227 1010 l 836 1010 l 819 902 l 331 902 l 274 560 l 730 560 l 712 452 l 256 452 l 199 109 l 694 109 l 677 0 l 59 0 "},"F":{"ha":815,"x_min":0,"x_max":0,"o":"m 227 1010 l 833 1010 l 815 902 l 331 902 l 274 560 l 712 560 l 694 452 l 256 452 l 182 0 l 59 0 "},"G":{"ha":1032,"x_min":0,"x_max":0,"o":"m 864 694 b 623 909 844 827 769 909 b 223 505 444 909 266 767 b 477 101 180 243 290 101 b 829 397 649 101 797 216 l 562 397 l 582 505 l 967 505 l 947 397 b 468 -14 908 146 708 -14 b 105 505 199 -14 51 185 b 631 1024 156 825 373 1024 b 990 694 844 1024 986 890 l 864 694 "},"H":{"ha":1028,"x_min":0,"x_max":0,"o":"m 227 1010 l 349 1010 l 274 560 l 813 560 l 888 1010 l 1010 1010 l 842 0 l 720 0 l 795 452 l 256 452 l 182 0 l 59 0 "},"I":{"ha":367,"x_min":0,"x_max":0,"o":"m 182 0 l 59 0 l 227 1010 l 349 1010 "},"J":{"ha":754,"x_min":0,"x_max":0,"o":"m 736 1010 l 616 284 b 286 -14 584 91 464 -14 b 34 237 116 -14 9 82 l 150 237 b 288 95 138 147 194 95 b 495 292 396 95 473 166 l 614 1010 "},"K":{"ha":906,"x_min":0,"x_max":0,"o":"m 227 1010 l 349 1010 l 266 509 l 278 509 l 815 1010 l 975 1010 l 475 554 l 807 0 l 659 0 l 387 470 l 237 327 l 182 0 l 59 0 "},"L":{"ha":781,"x_min":0,"x_max":0,"o":"m 227 1010 l 349 1010 l 199 109 l 669 109 l 651 0 l 59 0 "},"M":{"ha":1235,"x_min":0,"x_max":0,"o":"m 373 1010 l 578 172 l 590 172 l 1071 1010 l 1217 1010 l 1050 0 l 935 0 l 1063 767 l 1054 767 l 610 0 l 499 0 l 312 767 l 302 767 l 174 0 l 59 0 l 227 1010 "},"N":{"ha":1046,"x_min":0,"x_max":0,"o":"m 860 0 l 742 0 l 324 793 l 314 793 l 182 0 l 59 0 l 227 1010 l 345 1010 l 765 215 l 775 215 l 908 1010 l 1028 1010 "},"O":{"ha":1057,"x_min":0,"x_max":0,"o":"m 994 497 b 472 -14 941 182 726 -14 b 105 513 209 -14 51 189 b 629 1024 158 829 373 1024 b 994 497 890 1024 1048 821 m 878 513 b 623 909 921 771 803 909 b 221 497 436 909 264 763 b 475 101 178 239 296 101 b 878 513 663 101 835 247 "},"Ö":{"ha":1057,"x_min":0,"x_max":0,"o":"m 994 497 b 472 -14 941 182 726 -14 b 105 513 209 -14 51 189 b 629 1024 158 829 373 1024 b 994 497 890 1024 1048 821 m 878 513 b 623 909 921 771 803 909 b 221 497 436 909 264 763 b 475 101 178 239 296 101 b 878 513 663 101 835 247 m 802 1136 b 731 1223 759 1136 723 1176 b 814 1294 738 1265 776 1294 b 887 1207 863 1294 895 1257 b 802 1136 881 1170 845 1136 m 518 1136 b 447 1223 474 1136 440 1178 b 530 1294 453 1265 492 1294 b 603 1207 579 1294 611 1257 b 518 1136 597 1170 561 1136 "},"P":{"ha":880,"x_min":0,"x_max":0,"o":"m 227 1010 l 568 1010 b 858 690 805 1010 888 870 b 464 369 829 513 698 369 l 243 369 l 182 0 l 59 0 m 477 477 b 738 690 639 477 718 570 b 546 902 758 813 710 902 l 331 902 l 261 477 "},"Q":{"ha":1077,"x_min":0,"x_max":0,"o":"m 994 497 b 774 93 965 321 884 182 l 915 -95 l 781 -95 l 684 36 b 472 -14 618 3 547 -14 b 105 513 209 -14 51 189 b 629 1024 158 829 373 1024 b 994 497 890 1024 1048 821 m 606 316 l 705 184 b 878 513 790 254 854 364 b 623 909 921 771 803 909 b 221 497 436 909 264 763 b 475 101 178 239 296 101 b 614 129 523 101 570 110 l 472 316 "},"R":{"ha":888,"x_min":0,"x_max":0,"o":"m 227 1010 l 568 1010 b 860 700 805 1010 890 880 b 623 417 838 567 760 462 l 783 0 l 641 0 l 493 395 b 468 395 485 395 476 395 l 247 395 l 182 0 l 59 0 m 483 505 b 740 700 645 505 720 580 b 546 902 760 823 710 902 l 331 902 l 265 505 "},"S":{"ha":886,"x_min":0,"x_max":0,"o":"m 736 750 b 537 915 736 858 659 915 b 286 748 402 915 302 844 b 454 580 268 639 383 600 l 552 552 b 789 274 651 525 821 464 b 377 -18 762 110 610 -18 b 59 260 160 -18 43 95 l 185 260 b 395 93 176 146 274 93 b 671 276 535 93 653 166 b 497 444 689 377 600 414 l 379 479 b 166 742 229 525 144 606 b 558 1024 195 911 365 1024 b 854 750 754 1024 872 909 l 736 750 "},"T":{"ha":892,"x_min":0,"x_max":0,"o":"m 172 1010 l 929 1010 l 911 902 l 594 902 l 444 0 l 322 0 l 472 902 l 154 902 "},"U":{"ha":1030,"x_min":0,"x_max":0,"o":"m 1012 1010 l 902 341 b 449 -18 867 134 687 -18 b 116 341 211 -18 82 134 l 227 1010 l 349 1010 l 240 351 b 469 97 216 203 300 97 b 780 351 637 97 757 203 l 890 1010 "},"Ü":{"ha":1030,"x_min":0,"x_max":0,"o":"m 1012 1010 l 902 341 b 449 -18 867 134 687 -18 b 116 341 211 -18 82 134 l 227 1010 l 349 1010 l 240 351 b 469 97 216 203 300 97 b 780 351 637 97 757 203 l 890 1010 m 789 1136 b 718 1223 746 1136 710 1176 b 801 1294 725 1265 763 1294 b 874 1207 850 1294 882 1257 b 789 1136 868 1170 833 1136 m 505 1136 b 434 1223 462 1136 428 1178 b 517 1294 440 1265 479 1294 b 590 1207 566 1294 598 1257 b 505 1136 584 1170 548 1136 "},"V":{"ha":939,"x_min":0,"x_max":0,"o":"m 428 160 l 440 160 l 880 1010 l 1008 1010 l 470 0 l 343 0 l 140 1010 l 268 1010 "},"W":{"ha":1318,"x_min":0,"x_max":0,"o":"m 134 1010 l 258 1010 l 333 187 l 343 187 l 694 1010 l 833 1010 l 911 187 l 921 187 l 1269 1010 l 1393 1010 l 949 0 l 823 0 l 734 805 l 726 805 l 369 0 l 243 0 "},"X":{"ha":892,"x_min":0,"x_max":0,"o":"m 477 590 l 485 590 l 815 1010 l 959 1010 l 558 505 l 791 0 l 647 0 l 456 412 l 448 412 l 118 0 l -26 0 l 385 505 l 142 1010 l 286 1010 "},"Y":{"ha":923,"x_min":0,"x_max":0,"o":"m 280 1010 l 483 539 l 495 539 l 852 1010 l 992 1010 l 529 416 l 460 0 l 337 0 l 406 416 l 140 1010 "},"Z":{"ha":868,"x_min":0,"x_max":0,"o":"m 41 89 l 720 902 l 170 902 l 187 1010 l 884 1010 l 870 921 l 189 109 l 740 109 l 722 0 l 26 0 "},"a":{"ha":783,"x_min":0,"x_max":0,"o":"m 264 -18 b 43 215 120 -18 20 67 b 375 438 73 389 231 420 b 582 507 515 456 572 452 l 582 511 b 452 665 598 608 558 665 b 231 550 341 665 266 606 l 128 590 b 462 767 209 728 347 767 b 696 499 558 767 736 740 l 614 0 l 497 0 l 515 103 l 509 103 b 264 -18 477 53 397 -18 m 298 87 b 543 274 436 87 527 180 l 560 381 b 353 337 537 357 402 343 b 160 209 260 326 174 298 b 298 87 146 128 205 87 "},"ä":{"ha":783,"x_min":0,"x_max":0,"o":"m 264 -18 b 43 215 120 -18 20 67 b 375 438 73 389 231 420 b 582 507 515 456 572 452 l 582 511 b 452 665 598 608 558 665 b 231 550 341 665 266 606 l 128 590 b 462 767 209 728 347 767 b 696 499 558 767 736 740 l 614 0 l 497 0 l 515 103 l 509 103 b 264 -18 477 53 397 -18 m 298 87 b 543 274 436 87 527 180 l 560 381 b 353 337 537 357 402 343 b 160 209 260 326 174 298 b 298 87 146 128 205 87 m 636 884 b 565 971 593 884 557 923 b 648 1042 572 1012 611 1042 b 721 955 697 1042 729 1004 b 636 884 715 917 680 884 m 352 884 b 281 971 309 884 275 925 b 364 1042 287 1012 327 1042 b 437 955 413 1042 445 1004 b 352 884 431 917 396 884 "},"b":{"ha":862,"x_min":0,"x_max":0,"o":"m 227 1010 l 343 1010 l 282 637 l 292 637 b 533 767 324 677 385 767 b 791 377 724 767 831 616 b 404 -16 752 136 594 -16 b 205 116 258 -16 225 75 l 191 116 l 172 0 l 59 0 m 237 379 b 406 89 209 207 266 89 b 675 379 552 89 647 217 b 501 663 700 539 649 663 b 237 379 359 663 264 548 "},"c":{"ha":775,"x_min":0,"x_max":0,"o":"m 349 -16 b 71 375 136 -16 33 148 b 477 767 108 606 272 767 b 738 531 637 767 741 673 l 621 531 b 462 663 615 600 564 663 b 187 379 325 663 215 550 b 367 89 157 203 228 89 b 570 221 457 89 534 138 l 687 221 b 349 -16 643 87 516 -16 "},"ç":{"ha":775,"x_min":0,"x_max":0,"o":"m 387 -36 b 470 -152 438 -43 483 -75 b 239 -296 456 -237 375 -296 l 249 -219 b 365 -156 310 -219 357 -201 b 268 -93 373 -110 343 -99 l 299 -13 b 71 375 120 11 36 166 b 477 767 108 606 272 767 b 738 531 637 767 741 673 l 621 531 b 462 663 615 600 564 663 b 187 379 325 663 215 550 b 367 89 157 203 228 89 b 570 221 457 89 534 138 l 687 221 b 396 -13 647 100 540 4 "},"d":{"ha":863,"x_min":0,"x_max":0,"o":"m 328 -16 b 71 377 139 -16 32 136 b 460 767 111 616 268 767 b 657 637 608 767 638 677 l 667 637 l 729 1010 l 845 1010 l 678 0 l 565 0 l 585 116 l 571 116 b 328 -16 539 75 474 -16 m 357 89 b 626 379 497 89 598 207 b 452 663 654 548 594 663 b 188 379 304 663 215 539 b 357 89 161 217 211 89 "},"e":{"ha":811,"x_min":0,"x_max":0,"o":"m 359 -16 b 71 373 141 -16 32 140 b 477 767 109 606 273 767 b 740 389 636 767 788 671 l 732 339 l 181 339 b 377 89 153 154 231 89 b 586 207 470 89 543 128 l 692 176 b 359 -16 638 61 513 -16 m 629 440 b 460 663 652 568 586 663 b 197 440 332 663 220 547 "},"f":{"ha":501,"x_min":0,"x_max":0,"o":"m 491 659 l 320 659 l 211 0 l 95 0 l 205 659 l 83 659 l 99 758 l 221 758 l 239 862 b 483 1057 258 992 375 1057 b 590 1038 541 1057 574 1046 l 541 937 b 477 949 529 941 511 949 b 349 835 400 949 363 909 l 336 758 l 507 758 "},"g":{"ha":846,"x_min":0,"x_max":0,"o":"m 302 -300 b 16 -148 132 -300 51 -227 l 120 -83 b 316 -197 144 -125 177 -197 b 560 -14 437 -197 539 -140 l 584 140 l 574 140 b 333 12 543 99 481 12 b 73 383 149 12 34 146 b 460 767 111 616 268 767 b 659 637 608 767 640 677 l 671 637 l 690 758 l 803 758 l 675 -22 b 302 -300 642 -217 482 -300 m 363 116 b 627 385 502 116 600 217 b 452 663 654 548 593 663 b 189 385 303 663 215 539 b 363 116 163 227 216 116 "},"h":{"ha":821,"x_min":0,"x_max":0,"o":"m 160 0 l 43 0 l 211 1010 l 327 1010 l 266 639 l 276 639 b 521 767 324 718 400 767 b 732 481 675 767 763 677 l 651 0 l 535 0 l 614 473 b 470 663 633 594 578 663 b 235 456 355 663 258 588 "},"i":{"ha":329,"x_min":0,"x_max":0,"o":"m 170 758 l 286 758 l 160 0 l 43 0 m 263 886 b 181 965 218 886 181 921 b 263 1044 181 1008 218 1044 b 346 965 309 1044 346 1008 b 263 886 346 921 309 886 "},"j":{"ha":329,"x_min":0,"x_max":0,"o":"m 286 758 l 152 -55 b -105 -284 128 -195 41 -284 l -128 -284 l -110 -176 l -89 -176 b 36 -55 -18 -176 22 -132 l 170 758 m 259 884 b 177 963 214 884 177 919 b 259 1042 177 1006 214 1042 b 342 963 305 1042 342 1006 b 259 884 342 919 305 884 "},"k":{"ha":756,"x_min":0,"x_max":0,"o":"m 211 1010 l 327 1010 l 229 420 l 243 420 l 631 758 l 775 758 l 401 433 l 673 0 l 525 0 l 301 360 l 207 284 l 160 0 l 43 0 "},"l":{"ha":329,"x_min":0,"x_max":0,"o":"m 160 0 l 43 0 l 211 1010 l 327 1010 "},"m":{"ha":1207,"x_min":0,"x_max":0,"o":"m 170 758 l 282 758 l 262 639 l 272 639 b 497 767 318 720 399 767 b 679 639 596 767 655 720 l 687 639 b 935 767 738 718 827 767 b 1123 507 1069 767 1152 685 l 1038 0 l 921 0 l 1006 507 b 878 663 1024 619 961 663 b 683 493 771 663 698 592 l 600 0 l 481 0 l 568 519 b 442 663 582 606 531 663 b 239 473 351 663 256 584 l 160 0 l 43 0 "},"n":{"ha":813,"x_min":0,"x_max":0,"o":"m 160 0 l 43 0 l 170 758 l 282 758 l 262 639 l 272 639 b 515 767 320 716 400 767 b 724 481 667 767 756 675 l 643 0 l 527 0 l 606 473 b 464 663 625 592 572 663 b 235 456 351 663 258 588 "},"o":{"ha":829,"x_min":0,"x_max":0,"o":"m 356 -16 b 72 383 146 -16 33 144 b 471 767 109 616 269 767 b 755 367 679 767 793 608 b 356 -16 717 136 557 -16 m 358 89 b 642 383 517 89 617 226 b 469 663 665 531 620 663 b 184 367 308 663 209 523 b 358 89 160 219 206 89 "},"ö":{"ha":829,"x_min":0,"x_max":0,"o":"m 356 -16 b 72 383 146 -16 33 144 b 471 767 109 616 269 767 b 755 367 679 767 793 608 b 356 -16 717 136 557 -16 m 358 89 b 642 383 517 89 617 226 b 469 663 665 531 620 663 b 184 367 308 663 209 523 b 358 89 160 219 206 89 m 647 884 b 576 971 604 884 568 923 b 659 1042 583 1012 621 1042 b 732 955 708 1042 740 1004 b 647 884 726 917 690 884 m 363 884 b 292 971 320 884 286 925 b 375 1042 298 1012 337 1042 b 448 955 424 1042 456 1004 b 363 884 442 917 406 884 "},"p":{"ha":847,"x_min":0,"x_max":0,"o":"m 171 758 l 283 758 l 263 637 l 277 637 b 518 767 308 677 369 767 b 776 377 709 767 815 616 b 390 -16 736 136 579 -16 b 190 116 243 -16 210 75 l 181 116 l 113 -284 l -4 -284 m 222 379 b 392 89 194 207 251 89 b 660 379 537 89 632 217 b 486 663 685 539 634 663 b 222 379 344 663 249 548 "},"q":{"ha":845,"x_min":0,"x_max":0,"o":"m 579 116 l 569 116 b 327 -16 537 75 472 -16 b 70 377 137 -16 30 136 b 458 767 109 616 266 767 b 655 637 606 767 636 677 l 669 637 l 690 758 l 802 758 l 629 -284 l 513 -284 m 359 89 b 624 379 500 89 596 207 b 455 663 653 548 596 663 b 186 379 306 663 213 539 b 359 89 160 217 214 89 "},"r":{"ha":519,"x_min":0,"x_max":0,"o":"m 170 758 l 282 758 l 262 643 l 270 643 b 489 769 310 718 399 769 b 550 767 507 769 537 769 l 531 649 b 460 657 523 651 491 657 b 239 479 349 657 256 582 l 160 0 l 43 0 "},"s":{"ha":726,"x_min":0,"x_max":0,"o":"m 568 558 b 422 667 556 612 525 667 b 243 554 329 667 253 619 b 353 444 233 497 268 466 l 462 416 b 629 211 592 383 647 318 b 296 -16 608 81 472 -16 b 39 182 140 -16 45 53 l 156 209 b 310 87 162 128 215 87 b 507 205 418 87 497 140 b 412 312 517 258 487 294 l 292 341 b 124 548 158 375 107 444 b 440 767 146 677 280 767 b 679 588 590 767 659 696 "},"t":{"ha":505,"x_min":0,"x_max":0,"o":"m 483 659 l 320 659 l 247 217 b 329 103 231 118 278 103 b 381 109 355 103 371 107 l 389 4 b 298 -10 371 -2 341 -10 b 126 185 199 -10 105 53 l 204 659 l 91 659 l 107 758 l 220 758 l 251 939 l 367 939 l 337 758 l 499 758 "},"u":{"ha":807,"x_min":0,"x_max":0,"o":"m 647 758 l 763 758 l 637 0 l 521 0 l 543 128 l 535 128 b 286 -10 487 51 400 -10 b 89 276 144 -10 57 83 l 170 758 l 286 758 l 207 284 b 343 103 189 174 247 103 b 572 310 430 103 548 168 "},"ü":{"ha":807,"x_min":0,"x_max":0,"o":"m 647 758 l 763 758 l 637 0 l 521 0 l 543 128 l 535 128 b 286 -10 487 51 400 -10 b 89 276 144 -10 57 83 l 170 758 l 286 758 l 207 284 b 343 103 189 174 247 103 b 572 310 430 103 548 168 m 636 884 b 565 971 593 884 557 923 b 648 1042 572 1012 611 1042 b 721 955 697 1042 729 1004 b 636 884 715 917 680 884 m 352 884 b 281 971 309 884 275 925 b 364 1042 287 1012 327 1042 b 437 955 413 1042 445 1004 b 352 884 431 917 396 884 "},"v":{"ha":773,"x_min":0,"x_max":0,"o":"m 383 0 l 264 0 l 110 758 l 232 758 l 340 154 l 348 154 l 658 758 l 789 758 "},"w":{"ha":1128,"x_min":0,"x_max":0,"o":"m 110 758 l 233 758 l 300 178 l 308 178 l 566 758 l 690 758 l 754 180 l 762 180 l 1022 758 l 1144 758 l 787 0 l 673 0 l 604 582 l 592 582 l 329 0 l 215 0 "},"x":{"ha":750,"x_min":0,"x_max":0,"o":"m 387 448 l 619 758 l 754 758 l 446 379 l 627 0 l 493 0 l 361 294 l 130 0 l -4 0 l 300 379 l 122 758 l 256 758 "},"y":{"ha":773,"x_min":0,"x_max":0,"o":"m 72 -284 b -11 -270 33 -284 0 -276 l 36 -168 b 230 -59 117 -189 167 -174 l 262 0 l 110 758 l 232 758 l 340 152 l 348 152 l 658 758 l 789 758 l 325 -109 b 72 -284 259 -231 175 -284 "},"z":{"ha":752,"x_min":0,"x_max":0,"o":"m 37 89 l 558 641 l 560 649 l 144 649 l 162 758 l 728 758 l 712 665 l 203 116 l 201 109 l 633 109 l 616 0 l 22 0 "},"$":{"ha":886,"x_min":0,"x_max":0,"o":"m 338 -16 b 59 260 146 -3 44 105 l 185 260 b 356 95 177 158 254 105 l 418 468 l 379 479 b 166 742 229 525 144 606 b 509 1021 193 897 337 1004 l 529 1136 l 610 1136 l 591 1023 b 854 750 766 1011 871 901 l 736 750 b 573 913 736 847 674 903 l 514 563 l 552 552 b 789 274 651 525 821 464 b 419 -16 763 120 628 -2 l 400 -126 l 320 -126 m 437 95 b 671 276 558 108 655 177 b 497 444 689 377 600 414 l 495 444 l 437 95 m 492 912 b 286 748 380 899 300 833 b 437 585 270 647 366 606 "},"£":{"ha":876,"x_min":0,"x_max":0,"o":"m 28 0 l 45 109 l 85 109 b 183 276 144 109 176 217 l 199 393 l 89 393 l 109 505 l 214 505 l 241 704 b 594 1024 268 919 440 1024 b 827 724 781 1024 890 874 l 718 756 b 582 915 748 858 671 915 b 355 704 487 915 381 850 l 329 505 l 568 505 l 548 393 l 315 393 l 300 276 b 236 109 292 211 273 149 l 714 109 l 696 0 "},"€":{"ha":923,"x_min":0,"x_max":0,"o":"m 708 554 l 308 554 b 298 505 304 539 301 522 b 291 456 295 488 293 472 l 651 456 l 590 357 l 289 357 b 527 101 301 190 394 101 b 758 187 614 101 692 138 l 789 85 b 507 -14 710 20 608 -14 b 168 357 304 -14 175 125 l 32 357 l 83 456 l 173 456 b 180 505 175 472 177 488 b 189 554 182 522 185 538 l 65 554 l 116 653 l 217 653 b 679 1024 299 885 476 1024 b 929 919 783 1024 870 986 l 866 817 b 661 909 813 874 746 909 b 338 653 528 909 405 820 l 769 653 "},"&":{"ha":888,"x_min":0,"x_max":0,"o":"m 327 -14 b 53 268 128 -14 26 105 b 299 548 73 391 167 467 b 221 791 244 632 207 701 b 503 1020 243 927 355 1020 b 712 809 655 1020 732 921 b 541 584 696 712 633 646 l 458 529 l 633 261 b 704 442 667 312 693 373 l 817 442 b 693 169 793 298 737 218 l 803 0 l 663 0 l 606 86 b 327 -14 529 19 420 -14 m 357 462 l 316 434 b 172 268 214 366 176 296 b 341 89 156 174 221 89 b 550 170 411 89 486 118 m 475 665 b 594 809 539 702 582 740 b 489 919 602 860 562 919 b 337 789 412 919 348 852 b 401 616 328 733 362 676 "},"!":{"ha":387,"x_min":0,"x_max":0,"o":"m 235 284 l 120 284 l 231 1010 l 365 1010 m 144 -8 b 55 81 94 -8 56 32 b 144 168 54 130 96 168 b 233 81 192 168 234 128 b 144 -8 232 32 192 -8 "},"?":{"ha":704,"x_min":0,"x_max":0,"o":"m 245 296 b 450 594 277 480 346 536 b 580 763 513 629 568 685 b 440 921 596 860 533 921 b 243 758 359 921 268 874 l 118 758 b 456 1024 154 925 296 1024 b 698 758 629 1024 724 911 b 521 521 681 649 616 572 b 363 296 426 468 385 414 l 361 284 l 243 284 m 272 -8 b 183 81 222 -8 184 32 b 272 168 182 130 224 168 b 361 81 321 168 362 128 b 272 -8 360 32 321 -8 "},"(":{"ha":503,"x_min":0,"x_max":0,"o":"m 156 426 b 448 1057 197 675 298 882 l 550 1057 b 276 426 434 927 316 661 b 341 -205 237 191 268 -75 l 239 -205 b 156 426 148 -30 114 178 "},")":{"ha":503,"x_min":0,"x_max":0,"o":"m 363 426 b 71 -205 322 178 221 -30 l -32 -205 b 243 426 85 -75 203 191 b 178 1057 282 661 251 927 l 280 1057 b 363 426 371 882 404 675 "},"[":{"ha":503,"x_min":0,"x_max":0,"o":"m 276 1057 l 568 1057 l 552 961 l 371 961 l 193 -109 l 375 -109 l 359 -205 l 67 -205 "},"]":{"ha":503,"x_min":0,"x_max":0,"o":"m 243 -205 l -49 -205 l -34 -109 l 148 -109 l 326 961 l 144 961 l 160 1057 l 452 1057 "},"{":{"ha":503,"x_min":0,"x_max":0,"o":"m 359 -205 b 146 59 166 -205 116 -122 l 172 217 b 49 367 189 326 160 367 l 47 367 l 67 485 l 69 485 b 243 635 180 485 225 526 l 268 793 b 568 1057 298 975 375 1057 l 552 961 b 375 793 438 961 393 909 l 341 596 b 175 433 329 515 293 455 l 173 419 b 286 256 283 397 298 337 l 253 59 b 375 -109 233 -57 260 -109 l 359 -205 "},"}":{"ha":503,"x_min":0,"x_max":0,"o":"m 160 1057 b 373 793 353 1057 402 975 l 347 635 b 470 485 329 527 359 485 l 472 485 l 452 367 l 450 367 b 276 217 339 367 294 326 l 251 59 b -49 -205 221 -122 144 -205 l -34 -109 b 144 59 81 -109 126 -57 l 178 256 b 344 419 190 337 225 397 l 346 434 b 233 596 236 455 220 515 l 266 793 b 144 961 286 909 258 961 l 160 1057 "},"#":{"ha":876,"x_min":0,"x_max":0,"o":"m 546 280 l 290 280 l 239 0 l 140 0 l 191 280 l 40 280 l 58 379 l 209 379 l 255 631 l 106 631 l 123 730 l 273 730 l 324 1010 l 422 1010 l 371 730 l 628 730 l 679 1010 l 777 1010 l 727 730 l 877 730 l 859 631 l 709 631 l 663 379 l 812 379 l 794 280 l 645 280 l 594 0 l 495 0 m 564 379 l 610 631 l 354 631 l 308 379 "},"/":{"ha":495,"x_min":0,"x_max":0,"o":"m 51 -152 l -55 -152 l 470 1057 l 576 1057 "},"\\":{"ha":493,"x_min":0,"x_max":0,"o":"m 144 1057 l 248 1057 l 373 -152 l 269 -152 "},"-":{"ha":639,"x_min":0,"x_max":0,"o":"m 541 379 l 99 379 l 116 487 l 558 487 "},"'":{"ha":308,"x_min":0,"x_max":0,"o":"m 254 663 l 146 663 l 203 1010 l 312 1010 "},"\"":{"ha":560,"x_min":0,"x_max":0,"o":"m 254 663 l 146 663 l 203 1010 l 312 1010 m 507 663 l 399 663 l 456 1010 l 564 1010 "},",":{"ha":389,"x_min":0,"x_max":0,"o":"m 223 85 b 79 -247 187 -28 112 -180 l -10 -247 b 99 83 12 -183 63 -51 l 114 138 l 241 138 "},".":{"ha":383,"x_min":0,"x_max":0,"o":"m 142 -8 b 53 81 92 -8 54 32 b 142 168 52 130 94 168 b 231 81 190 168 232 128 b 142 -8 230 32 190 -8 "},":":{"ha":383,"x_min":0,"x_max":0,"o":"m 142 -8 b 53 81 92 -8 54 32 b 142 168 52 130 94 168 b 231 81 190 168 232 128 b 142 -8 230 32 190 -8 m 235 554 b 146 643 184 554 147 594 b 235 730 145 692 186 730 b 324 643 283 730 325 690 b 235 554 323 594 283 554 "},";":{"ha":389,"x_min":0,"x_max":0,"o":"m 223 85 b 79 -247 187 -28 112 -180 l -10 -247 b 99 83 12 -183 63 -51 l 114 138 l 241 138 m 239 554 b 150 643 188 554 151 594 b 239 730 149 692 190 730 b 327 643 287 730 328 690 b 239 554 327 594 287 554 "},"<":{"ha":915,"x_min":0,"x_max":0,"o":"m 149 434 l 837 758 l 818 631 l 294 398 l 293 390 l 739 158 l 717 32 l 135 355 "},">":{"ha":915,"x_min":0,"x_max":0,"o":"m 107 32 l 128 158 l 650 391 l 651 399 l 207 631 l 227 758 l 809 434 l 795 355 "},"=":{"ha":915,"x_min":0,"x_max":0,"o":"m 141 302 l 749 302 l 731 195 l 123 195 m 189 594 l 797 594 l 779 487 l 172 487 "},"+":{"ha":915,"x_min":0,"x_max":0,"o":"m 396 339 l 125 339 l 144 450 l 414 450 l 459 720 l 570 720 l 525 450 l 795 450 l 776 339 l 508 339 l 463 69 l 351 69 "},"~":{"ha":915,"x_min":0,"x_max":0,"o":"m 101 300 b 329 527 126 464 229 527 b 503 436 397 527 441 498 b 604 379 545 395 568 379 b 714 499 661 379 702 420 l 821 499 b 593 277 797 335 693 277 b 421 368 526 277 483 306 b 318 420 380 409 353 420 b 207 300 264 420 221 387 l 101 300 "},"_":{"ha":627,"x_min":0,"x_max":0,"o":"m 548 -109 l -83 -109 l -65 0 l 566 0 "},"^":{"ha":651,"x_min":0,"x_max":0,"o":"m 357 979 l 491 979 l 625 552 l 513 552 l 414 874 l 408 874 l 207 552 l 85 552 "},"*":{"ha":694,"x_min":0,"x_max":0,"o":"m 355 659 l 154 543 l 120 625 l 327 726 l 150 827 l 211 909 l 377 793 l 404 1010 l 499 1010 l 456 793 l 655 909 l 690 827 l 483 726 l 661 625 l 600 543 l 434 659 l 404 442 l 310 442 "},"°":{"ha":631,"x_min":0,"x_max":0,"o":"m 384 564 b 157 791 258 564 157 666 b 384 1018 157 916 258 1018 b 611 791 509 1018 611 916 b 384 564 611 666 509 564 m 384 663 b 512 791 455 663 512 720 b 384 919 512 862 455 919 b 255 791 313 919 255 862 b 384 663 255 720 313 663 "},"§":{"ha":765,"x_min":0,"x_max":0,"o":"m 580 771 b 470 919 594 856 562 919 b 324 813 381 919 333 862 b 408 677 314 754 365 704 l 582 564 b 689 347 627 535 710 470 b 521 170 677 274 600 193 l 521 168 b 564 8 562 126 574 71 b 278 -205 541 -138 408 -205 b 51 49 122 -205 26 -109 l 166 49 b 296 -101 150 -47 207 -101 b 452 8 369 -101 440 -65 b 367 144 464 82 411 116 l 367 144 l 195 254 b 87 473 148 284 67 351 b 254 653 99 545 170 629 l 254 657 b 211 813 221 698 201 750 b 487 1024 233 935 347 1024 b 692 771 639 1024 716 919 m 580 347 b 509 475 590 404 552 448 l 335 588 b 195 473 296 614 209 556 b 268 343 185 410 225 373 l 434 237 b 580 347 472 213 568 266 "},"%":{"ha":1128,"x_min":0,"x_max":0,"o":"m 189 821 b 420 1024 206 931 294 1024 b 582 821 548 1024 598 931 l 574 767 b 345 564 558 656 472 564 b 182 767 217 564 165 656 m 598 243 b 829 446 618 353 702 446 b 990 243 957 446 1011 353 l 981 189 b 752 -14 960 79 878 -14 b 588 189 623 -14 568 79 m 950 1010 l 1068 1010 l 206 0 l 88 0 m 282 767 b 359 649 273 706 288 649 b 473 767 428 649 464 706 l 481 821 b 406 939 490 882 477 939 b 290 821 337 939 299 882 m 689 189 b 765 71 677 128 694 71 b 880 189 835 71 869 128 l 890 243 b 815 361 901 304 886 361 b 698 243 746 361 710 304 "},"`":{"ha":690,"x_min":0,"x_max":0,"o":"m 335 1089 l 472 1089 l 552 860 l 450 860 "}}}
